<svg xmlns="http://www.w3.org/2000/svg" width="800" height="600" viewBox="0 0 800 600"><rect width="100%" height="100%" fill="#007acc"/><path fill="#FFF" d="M228.16 249.225v12.71h-25.07v70.44h-15.47v-70.44h-25.07v-12.71zm21.22 27.72.86 6.67q2.76-5.29 6.55-8.31 3.8-3.02 8.97-3.02 4.09 0 6.56 1.79l-.92 10.63q-.29 1.04-.83 1.47-.55.43-1.47.43-.86 0-2.56-.29-1.69-.28-3.31-.28-2.35 0-4.19.68-1.84.69-3.31 1.99-1.47 1.29-2.59 3.13t-2.1 4.2v36.34h-14.2v-59h8.34q2.18 0 3.05.78.86.78 1.15 2.79m61.52 40.19v-9.95q-6.15.29-10.35 1.07-4.2.77-6.73 1.98-2.52 1.21-3.62 2.82-1.09 1.61-1.09 3.51 0 3.73 2.21 5.35 2.22 1.6 5.78 1.6 4.37 0 7.56-1.58t6.24-4.8m-30.01-30.99-2.53-4.54q10.18-9.32 24.49-9.32 5.18 0 9.26 1.7 4.08 1.69 6.9 4.71t4.28 7.22q1.47 4.2 1.47 9.2v37.26h-6.44q-2.01 0-3.1-.6-1.1-.61-1.73-2.45l-1.26-4.25q-2.25 2.01-4.38 3.53-2.12 1.53-4.42 2.56-2.3 1.04-4.92 1.58-2.61.55-5.78.55-3.73 0-6.9-1.01-3.16-1-5.46-3.01-2.3-2.02-3.56-5.01-1.27-2.99-1.27-6.96 0-2.24.75-4.45t2.44-4.23q1.7-2.01 4.4-3.79 2.7-1.79 6.64-3.11t9.17-2.15q5.24-.84 11.96-1.01v-3.45q0-5.92-2.53-8.77t-7.3-2.85q-3.45 0-5.72.81-2.27.8-4 1.81-1.72 1.01-3.13 1.81-1.41.81-3.13.81-1.5 0-2.53-.78-1.04-.78-1.67-1.81m71.41 4.48v26.46q2.42 2.93 5.26 4.13 2.85 1.21 6.01 1.21 3.28 0 5.9-1.18 2.61-1.17 4.45-3.68 1.84-2.5 2.82-6.38t.98-9.29q0-9.71-3.22-14.05-3.22-4.35-9.26-4.35-4.08 0-7.13 1.87t-5.81 5.26m0-43.7v33.7q3.57-3.74 7.91-5.95t9.92-2.21q5.12 0 9.23 2.01t7.01 5.78q2.91 3.76 4.46 9.11t1.55 12.02q0 7.19-1.78 13.05t-5.09 10.03-7.96 6.47q-4.66 2.3-10.35 2.3-2.76 0-5.01-.54-2.24-.55-4.14-1.53-1.89-.98-3.48-2.38-1.58-1.41-3.01-3.14l-.64 3.97q-.34 1.49-1.18 2.13-.83.63-2.27.63h-9.37v-85.45zm82.23 70.21v-9.95q-6.15.29-10.35 1.07-4.2.77-6.73 1.98t-3.62 2.82-1.09 3.51q0 3.73 2.21 5.35 2.21 1.6 5.78 1.6 4.37 0 7.56-1.58t6.24-4.8m-30.02-30.99-2.53-4.54q10.18-9.32 24.5-9.32 5.17 0 9.26 1.7 4.08 1.69 6.9 4.71 2.81 3.02 4.28 7.22t1.47 9.2v37.26h-6.44q-2.02 0-3.11-.6-1.09-.61-1.72-2.45l-1.27-4.25q-2.24 2.01-4.37 3.53-2.13 1.53-4.43 2.56-2.3 1.04-4.91 1.58-2.62.55-5.78.55-3.74 0-6.9-1.01-3.16-1-5.46-3.01-2.3-2.02-3.57-5.01-1.26-2.99-1.26-6.96 0-2.24.74-4.45.75-2.21 2.45-4.23 1.69-2.01 4.4-3.79 2.7-1.79 6.64-3.11t9.17-2.15q5.23-.84 11.96-1.01v-3.45q0-5.92-2.53-8.77t-7.3-2.85q-3.45 0-5.73.81-2.27.8-3.99 1.81-1.73 1.01-3.14 1.81-1.4.81-3.13.81-1.49 0-2.53-.78-1.03-.78-1.67-1.81m57.68-12.77h14.26v61.01q0 3.86-1.01 7.25t-3.22 5.95-5.81 4.02q-3.59 1.47-8.77 1.47-2.01 0-3.73-.26-1.73-.26-3.57-.83l.52-7.65q.17-1.15.92-1.47.75-.31 2.87-.31 2.13 0 3.6-.43 1.46-.43 2.33-1.38.86-.95 1.23-2.5.38-1.56.38-3.86zm16.21-17.19q0 1.84-.75 3.45-.74 1.61-1.98 2.82t-2.93 1.93q-1.7.71-3.6.71-1.84 0-3.45-.71-1.61-.72-2.81-1.93-1.21-1.21-1.93-2.82t-.72-3.45q0-1.9.72-3.56.72-1.67 1.93-2.88 1.2-1.21 2.81-1.92 1.61-.72 3.45-.72 1.9 0 3.6.72 1.69.71 2.93 1.92t1.98 2.88q.75 1.66.75 3.56m38.64 16.28q6.56 0 11.93 2.12 5.38 2.13 9.2 6.04 3.83 3.91 5.9 9.55 2.07 5.63 2.07 12.59 0 7.01-2.07 12.65-2.07 5.63-5.9 9.6-3.82 3.97-9.2 6.09-5.37 2.13-11.93 2.13-6.61 0-12.02-2.13-5.4-2.12-9.23-6.09-3.82-3.97-5.92-9.6-2.1-5.64-2.1-12.65 0-6.96 2.1-12.59 2.1-5.64 5.92-9.55 3.83-3.91 9.23-6.04 5.41-2.12 12.02-2.12m0 49.85q7.36 0 10.9-4.95 3.53-4.94 3.53-14.49 0-9.54-3.53-14.55-3.54-5-10.9-5-7.47 0-11.07 5.03-3.59 5.04-3.59 14.52 0 9.49 3.59 14.46 3.6 4.98 11.07 4.98m105.46-.58h14.95v10.64h-46v-10.64h16.84v-48.47q0-2.87.18-5.92l-11.96 10q-1.04.81-2.05 1.01-1 .2-1.89.03t-1.58-.61q-.69-.43-1.04-.95l-4.48-6.15 25.35-21.56h11.68z"/></svg>