<svg xmlns="http://www.w3.org/2000/svg" width="1024" height="768" viewBox="0 0 1024 768"><rect width="100%" height="100%" fill="#00a0b0"/><path fill="#FFF" d="M291.13 319.1v16.24h-32.04v90.04h-19.77v-90.04h-32.05V319.1zm27.13 35.43 1.1 8.52q3.53-6.76 8.38-10.62t11.46-3.86q5.22 0 8.38 2.28l-1.17 13.6q-.37 1.32-1.07 1.87t-1.87.55q-1.11 0-3.27-.36-2.17-.37-4.23-.37-3.01 0-5.37.88-2.35.88-4.22 2.54-1.88 1.65-3.31 4t-2.68 5.37v46.45h-18.16v-75.41h10.66q2.79 0 3.9.99 1.1.99 1.47 3.57m78.64 51.37v-12.71q-7.86.36-13.23 1.36-5.37.99-8.6 2.53-3.23 1.55-4.63 3.6-1.4 2.06-1.4 4.49 0 4.78 2.83 6.83 2.83 2.06 7.39 2.06 5.59 0 9.67-2.02 4.07-2.02 7.97-6.14m-38.37-39.61-3.23-5.81q13.01-11.91 31.31-11.91 6.62 0 11.83 2.17 5.22 2.17 8.82 6.03 3.61 3.86 5.48 9.22 1.87 5.37 1.87 11.76v47.63h-8.23q-2.57 0-3.97-.77-1.39-.77-2.2-3.13l-1.62-5.43q-2.87 2.57-5.59 4.52-2.71 1.94-5.65 3.27-2.94 1.32-6.29 2.02-3.34.7-7.39.7-4.77 0-8.82-1.29-4.04-1.29-6.98-3.86t-4.56-6.39q-1.61-3.83-1.61-8.9 0-2.86.95-5.69.96-2.83 3.13-5.41 2.17-2.57 5.62-4.85 3.45-2.27 8.49-3.97 5.03-1.69 11.72-2.75 6.69-1.07 15.29-1.29v-4.41q0-7.57-3.23-11.21-3.24-3.63-9.34-3.63-4.41 0-7.31 1.02-2.9 1.03-5.11 2.32-2.2 1.29-4.01 2.31-1.8 1.03-4 1.03-1.91 0-3.24-.99-1.32-.99-2.13-2.31m91.29 5.73v33.81q3.09 3.75 6.73 5.29 3.63 1.54 7.68 1.54 4.19 0 7.53-1.5 3.34-1.51 5.7-4.71 2.35-3.19 3.6-8.15 1.25-4.97 1.25-11.87 0-12.43-4.12-17.98-4.11-5.54-11.83-5.54-5.22 0-9.12 2.38-3.89 2.39-7.42 6.73m0-55.86v43.07q4.56-4.78 10.11-7.61t12.68-2.83q6.54 0 11.79 2.58 5.26 2.57 8.97 7.38 3.71 4.82 5.7 11.65 1.98 6.84 1.98 15.36 0 9.19-2.28 16.69t-6.5 12.82q-4.23 5.33-10.18 8.27-5.96 2.94-13.23 2.94-3.53 0-6.4-.7-2.86-.69-5.29-1.94t-4.45-3.05-3.86-4.01l-.8 5.07q-.44 1.91-1.51 2.72t-2.9.81h-11.98V316.16zm105.11 89.74v-12.71q-7.87.36-13.23 1.36-5.37.99-8.6 2.53-3.24 1.55-4.63 3.6-1.4 2.06-1.4 4.49 0 4.78 2.83 6.83 2.83 2.06 7.39 2.06 5.58 0 9.66-2.02t7.98-6.14m-38.37-39.61-3.24-5.81q13.01-11.91 31.32-11.91 6.61 0 11.83 2.17t8.82 6.03 5.47 9.22q1.88 5.37 1.88 11.76v47.63h-8.23q-2.58 0-3.97-.77-1.4-.77-2.21-3.13l-1.61-5.43q-2.87 2.57-5.59 4.52-2.72 1.94-5.66 3.27-2.94 1.32-6.28 2.02-3.35.7-7.39.7-4.78 0-8.82-1.29t-6.98-3.86-4.56-6.39q-1.62-3.83-1.62-8.9 0-2.86.96-5.69.95-2.83 3.12-5.41 2.17-2.57 5.62-4.85 3.46-2.27 8.49-3.97 5.04-1.69 11.73-2.75 6.69-1.07 15.29-1.29v-4.41q0-7.57-3.24-11.21-3.23-3.63-9.33-3.63-4.41 0-7.32 1.02-2.9 1.03-5.1 2.32-2.21 1.29-4.01 2.31-1.8 1.03-4.01 1.03-1.91 0-3.23-.99t-2.13-2.31m73.72-16.32h18.23v77.98q0 4.93-1.29 9.26-1.29 4.34-4.12 7.61t-7.42 5.15q-4.59 1.87-11.21 1.87-2.57 0-4.78-.33-2.2-.33-4.55-1.07l.66-9.77q.22-1.47 1.18-1.88.95-.4 3.67-.4t4.59-.55q1.88-.55 2.98-1.77 1.1-1.21 1.58-3.19.48-1.99.48-4.93zm20.73-21.98q0 2.35-.96 4.41t-2.54 3.6q-1.58 1.55-3.74 2.47-2.17.92-4.6.92-2.35 0-4.41-.92t-3.6-2.47q-1.54-1.54-2.46-3.6t-.92-4.41q0-2.42.92-4.55.92-2.14 2.46-3.68t3.6-2.46 4.41-.92q2.43 0 4.6.92 2.16.92 3.74 2.46t2.54 3.68q.96 2.13.96 4.55m49.39 20.8q8.38 0 15.25 2.72t11.76 7.72 7.53 12.2q2.65 7.2 2.65 16.1 0 8.96-2.65 16.17-2.64 7.2-7.53 12.27t-11.76 7.79-15.25 2.72q-8.45 0-15.36-2.72t-11.8-7.79-7.57-12.27q-2.68-7.21-2.68-16.17 0-8.9 2.68-16.1t7.57-12.2 11.8-7.72 15.36-2.72m0 63.73q9.41 0 13.93-6.32t4.52-18.53q0-12.2-4.52-18.59-4.52-6.4-13.93-6.4-9.56 0-14.15 6.44-4.59 6.43-4.59 18.55 0 12.13 4.59 18.49t14.15 6.36m122.67-4.04h27.27q2.94 0 4.67 1.65 1.72 1.65 1.72 4.37v10.88h-72.91v-6.03q0-1.83.77-3.86.77-2.02 2.46-3.63l32.27-32.34q4.04-4.12 7.24-7.87t5.33-7.42q2.13-3.68 3.27-7.46 1.14-3.79 1.14-7.98 0-3.82-1.1-6.72-1.11-2.91-3.13-4.89t-4.85-2.98q-2.83-.99-6.36-.99-3.23 0-5.99.92-2.75.92-4.88 2.57-2.14 1.66-3.61 3.86-1.47 2.21-2.2 4.85-1.25 3.38-3.23 4.49-1.99 1.1-5.74.51l-9.55-1.69q1.1-7.64 4.26-13.41t7.9-9.63 10.88-5.81 13.19-1.95q7.35 0 13.45 2.17t10.44 6.14 6.76 9.55q2.43 5.59 2.43 12.43 0 5.87-1.73 10.87t-4.63 9.56-6.8 8.82q-3.89 4.26-8.16 8.67l-23.96 24.48q3.46-1.03 6.87-1.58 3.42-.55 6.51-.55"/></svg>